<?xml version="1.0" standalone="no"?>
<!DOCTYPE svg PUBLIC "-//W3C//DTD SVG 20010904//EN"
 "http://www.w3.org/TR/2001/REC-SVG-20010904/DTD/svg10.dtd">
<svg version="1.0" xmlns="http://www.w3.org/2000/svg"
 width="1200.000000pt" height="1200.000000pt" viewBox="0 0 1200.000000 1200.000000"
 preserveAspectRatio="xMidYMid meet">
<metadata>
Created by potrace 1.11, written by Peter Selinger 2001-2013
</metadata>
<g transform="translate(0.000000,1200.000000) scale(0.100000,-0.100000)"
fill="#000000" stroke="none">
<path d="M4025 11973 c2 -16 7 -163 10 -328 13 -750 17 -912 25 -1085 5 -102
9 -336 10 -520 1 -184 3 -385 4 -447 1 -62 -2 -109 -6 -107 -5 3 -15 0 -23 -6
-10 -8 -44 -11 -105 -8 -57 3 -92 0 -95 -6 -3 -7 -7 -7 -11 1 -4 10 -11 10
-26 2 -11 -6 -23 -7 -27 -3 -8 11 -42 12 -58 1 -7 -5 -17 -6 -22 -2 -5 3 -13
0 -17 -6 -5 -8 -8 -8 -14 1 -5 9 -21 9 -66 1 -39 -8 -60 -8 -62 -1 -5 15 -42
12 -48 -5 -3 -8 -16 -14 -27 -13 -20 1 -225 -10 -307 -16 -19 -2 -129 -8 -245
-15 -115 -6 -236 -14 -268 -16 -93 -8 -413 -26 -522 -30 -55 -2 -125 -6 -155
-9 -30 -3 -140 -8 -245 -12 -104 -3 -192 -8 -195 -9 -3 -2 -88 -6 -190 -9
-102 -4 -201 -9 -220 -11 -19 -3 -168 -10 -330 -15 -162 -6 -342 -13 -400 -16
-58 -3 -139 -7 -180 -9 -41 -2 -105 -4 -142 -4 l-68 -1 0 -4635 0 -4635 3154
0 c2794 0 3155 2 3160 15 7 19 30 19 46 0 10 -13 115 -15 778 -15 l766 0 -25
27 c-13 16 -28 30 -32 32 -5 2 -32 25 -60 52 -28 27 -55 49 -59 49 -4 0 -8 9
-8 19 0 11 -4 22 -8 25 -13 8 -27 238 -26 411 1 144 26 381 41 396 5 5 8 -90
9 -209 0 -189 11 -373 30 -520 5 -36 15 -52 66 -100 33 -31 75 -78 94 -103 38
-52 68 -63 185 -74 l66 -5 77 86 c73 84 76 89 76 138 0 59 -18 168 -53 316
-14 58 -30 139 -35 180 -13 95 -26 347 -17 338 4 -3 15 -73 26 -155 11 -81 23
-166 28 -188 5 -22 16 -74 26 -115 53 -241 73 -407 55 -455 -6 -17 -34 -56
-61 -88 l-50 -57 1875 0 1876 0 0 4774 0 4773 -107 6 c-60 3 -112 2 -118 -1
-25 -16 -85 16 -85 45 0 17 -19 14 191 26 109 7 119 11 119 54 l0 36 -222 -7
c-123 -4 -416 -9 -653 -11 -236 -2 -459 -7 -495 -11 -36 -3 -146 -8 -245 -10
-99 -1 -241 -6 -315 -9 -74 -3 -241 -7 -370 -9 -332 -5 -790 -16 -890 -21 -47
-3 -173 -6 -280 -8 -107 -1 -202 -7 -210 -12 -21 -14 -48 -14 -180 -4 -63 5
-150 10 -193 12 -47 2 -82 8 -86 15 -4 7 -3 42 2 79 7 46 6 76 -1 97 -18 51
-25 167 -26 476 -1 218 2 304 11 329 17 44 16 74 -2 118 -13 30 -16 131 -19
632 -2 328 -5 604 -5 614 -1 14 -11 17 -56 17 l-55 0 2 -102 c1 -57 -3 -168
-9 -248 -6 -80 -7 -155 -2 -166 23 -63 37 -385 38 -946 1 -141 4 -178 14 -178
14 0 16 -34 4 -46 -4 -4 -7 -19 -7 -33 0 -28 15 -19 23 14 3 11 5 -8 6 -43 1
-57 -1 -62 -16 -53 -17 8 -18 -2 -21 -150 -2 -128 -5 -165 -19 -185 -9 -14
-20 -21 -24 -17 -7 7 -33 124 -58 266 -6 32 -17 65 -26 73 -19 19 -19 13 0
-34 10 -24 12 -38 5 -40 -5 -2 -10 -11 -10 -21 0 -10 -8 -17 -20 -18 -30 -3
-62 67 -61 134 0 41 -5 59 -19 73 -13 13 -20 34 -20 60 0 27 -4 40 -14 40 -15
0 -30 -147 -20 -197 8 -40 -19 -52 -35 -16 -9 20 -15 23 -23 15 -7 -7 -20 -12
-29 -12 -9 0 -19 -7 -23 -15 -3 -8 -12 -12 -21 -9 -8 3 -15 1 -15 -6 0 -6 -5
-8 -11 -4 -8 5 -4 12 10 23 31 23 40 91 15 111 -16 14 -17 13 -12 -10 3 -14 8
-32 10 -40 3 -8 3 -12 1 -7 -3 4 -9 5 -14 1 -5 -3 -13 6 -19 20 -10 28 -17
406 -8 446 4 14 9 46 13 73 4 28 10 45 16 41 7 -4 8 20 4 72 -8 93 -12 354 -5
360 10 11 10 57 0 69 -7 9 -8 15 -1 19 14 9 2 36 -14 30 -7 -3 -16 -1 -20 5
-3 6 -7 81 -8 166 -2 92 -7 159 -13 165 -8 8 -11 1 -12 -21 -1 -40 -21 -64
-24 -29 -1 14 -2 34 -3 45 -1 11 3 26 9 34 8 11 8 13 -1 7 -9 -5 -12 3 -9 32
2 22 6 44 9 49 3 5 9 25 12 44 8 43 15 50 15 14 0 -16 3 -25 6 -22 4 4 8 43 9
87 l2 80 -147 0 -147 0 3 -302 c2 -167 6 -357 9 -423 3 -66 8 -333 11 -592 7
-471 7 -473 -13 -473 -13 0 -23 8 -26 22 -5 18 -8 19 -21 9 -21 -18 -82 -6
-99 19 -20 29 -62 41 -108 31 -33 -7 -48 -5 -87 14 -42 21 -48 21 -53 6 -6
-15 -7 -15 -14 1 -4 10 -17 20 -28 24 -12 4 -46 31 -76 61 -42 42 -58 52 -75
47 -11 -4 -24 -11 -27 -16 -8 -13 -37 1 -43 20 -10 34 -18 129 -18 195 1 56
-2 68 -13 63 -11 -4 -15 3 -15 25 0 20 -4 29 -12 26 -7 -2 -12 -17 -11 -33 5
-75 4 -176 -2 -182 -4 -4 -12 -7 -18 -7 -13 -1 -13 -15 -2 -56 5 -21 3 -27
-13 -31 -29 -8 -42 4 -53 48 -9 34 -22 190 -21 249 0 29 22 177 27 186 3 3 -1
26 -8 50 -13 45 -14 128 -3 175 6 23 4 26 -13 21 -18 -4 -21 0 -21 28 0 19 6
35 14 38 9 4 14 24 15 63 1 56 15 89 33 78 10 -6 4 -158 -7 -186 -4 -11 -3
-18 5 -18 6 0 8 -4 5 -10 -3 -5 -2 -10 4 -10 5 0 13 5 16 10 4 6 10 8 14 5 11
-6 2 -97 -10 -110 -13 -13 -11 -85 2 -85 7 0 20 -9 30 -21 14 -16 17 -31 12
-67 -4 -38 -1 -52 16 -72 l20 -25 2 30 c1 17 3 41 4 55 1 14 6 41 12 60 6 19
9 73 7 120 -2 47 -3 110 -2 140 1 30 1 76 0 103 0 26 0 71 0 100 3 177 -6 470
-15 517 -2 14 -5 37 -6 53 -1 21 -6 27 -25 27 -25 0 -41 -24 -29 -42 4 -7 1
-8 -7 -3 -8 5 -11 2 -7 -11 3 -11 11 -38 18 -61 7 -25 9 -55 4 -80 -5 -21 -8
-40 -8 -43 0 -3 -8 -14 -18 -24 -11 -11 -19 -14 -19 -8 0 7 -4 12 -10 12 -5 0
-10 -9 -10 -20 0 -11 -4 -20 -9 -20 -14 0 -21 28 -21 86 0 40 3 53 12 48 6 -4
4 3 -5 17 -12 16 -17 44 -17 86 l0 63 -1065 0 -1064 0 4 -27z m3750 -14 c-6
-29 -15 -37 -15 -12 0 17 8 33 16 33 2 0 1 -10 -1 -21z m5 -196 c0 -20 -3 -24
-11 -16 -7 7 -9 19 -6 27 10 24 17 19 17 -11z m-1530 -108 c-3 -5 -5 -20 -4
-32 2 -27 -21 -31 -34 -5 -5 9 -8 28 -6 42 3 14 5 31 6 37 1 8 10 3 23 -10 12
-12 18 -26 15 -32z m1543 -405 c-1 -162 -5 -314 -8 -338 -5 -27 -3 -47 5 -56
7 -10 9 -34 5 -73 -10 -85 -11 -192 -2 -186 4 2 7 -3 7 -11 0 -9 5 -16 10 -16
13 0 13 -60 0 -80 -6 -10 -10 -11 -10 -2 0 6 -4 12 -10 12 -5 0 -11 -28 -11
-62 -1 -59 -2 -61 -9 -23 -7 36 -14 449 -12 720 3 483 6 523 26 450 7 -26 10
-145 9 -335z m-1593 226 c0 -3 -4 -8 -10 -11 -5 -3 -10 -1 -10 4 0 6 5 11 10
11 6 0 10 -2 10 -4z m66 -150 c2 -22 -1 -26 -22 -26 -25 0 -28 9 -18 47 8 30
36 15 40 -21z m-1536 -108 c0 -33 -4 -48 -9 -42 -9 8 -4 94 5 94 2 0 4 -23 4
-52z m9 -120 c0 -28 -2 -30 -9 -13 -12 28 -12 45 0 45 6 0 10 -15 9 -32z m1
-114 c0 -8 -4 -14 -10 -14 -5 0 -10 9 -10 21 0 11 5 17 10 14 6 -3 10 -13 10
-21z m0 -64 c0 -22 -4 -40 -10 -40 -5 0 -10 18 -10 40 0 22 5 40 10 40 6 0 10
-18 10 -40z m5 -218 c-9 -47 -27 -28 -21 21 3 23 6 56 6 72 2 25 4 23 11 -15
5 -25 7 -60 4 -78z m1161 -107 c-11 -45 -26 -26 -26 33 l0 57 16 -32 c10 -19
14 -43 10 -58z m-1154 -193 c2 -87 0 -168 -3 -182 -12 -52 -21 6 -26 175 -5
158 -4 175 10 169 14 -5 16 -30 19 -162z m112 -174 c4 -17 2 -28 -4 -28 -5 0
-10 14 -10 32 0 36 4 35 14 -4z m-722 -23 c3 -14 1 -25 -3 -25 -5 0 -9 11 -9
25 0 14 2 25 4 25 2 0 6 -11 8 -25z m3372 -11 c11 -28 7 -44 -9 -38 -8 4 -15
17 -15 30 0 27 15 32 24 8z m-2756 -121 c3 -99 -11 -144 -21 -68 -4 29 -2 53
5 65 10 15 10 22 0 32 -19 19 -13 76 7 64 3 -2 7 -44 9 -93z m-613 -32 c3 -5
1 -12 -5 -16 -5 -3 -10 1 -10 9 0 18 6 21 15 7z m7520 -454 c0 -26 -20 -25
-23 2 -3 16 1 22 10 19 7 -3 13 -12 13 -21z m-972 -5 c-9 -6 -25 -10 -35 -6
-10 3 -18 0 -18 -6 0 -7 -8 -10 -20 -7 -11 3 -20 0 -20 -5 0 -7 -5 -6 -14 1
-10 9 -16 9 -21 1 -5 -8 -11 -8 -21 1 -11 9 -14 9 -14 0 0 -7 -5 -9 -10 -6 -6
4 -18 1 -26 -6 -17 -14 -21 -11 -26 15 -2 12 3 20 15 22 11 1 20 4 22 6 2 2
49 3 104 3 84 0 98 -2 84 -13z m117 1 c0 -7 -11 -13 -25 -13 -23 0 -32 10 -20
21 10 10 45 4 45 -8z m155 7 c-4 -6 -10 -8 -15 -5 -4 3 -13 -2 -20 -10 -17
-21 -30 -19 -30 5 0 16 7 20 36 20 21 0 33 -4 29 -10z m75 0 c-19 -13 -30 -13
-30 0 0 6 10 10 23 10 18 0 19 -2 7 -10z m-600 -15 c0 -8 0 -18 1 -22 0 -4 -4
-9 -10 -11 -6 -2 -11 3 -11 12 0 10 -9 16 -26 16 -14 0 -23 4 -19 10 10 16 65
12 65 -5z m1086 -12 c-10 -10 -19 5 -10 18 6 11 8 11 12 0 2 -7 1 -15 -2 -18z
m-2481 -3 c7 11 168 11 220 0 22 -5 44 -5 50 0 5 4 21 8 35 9 14 0 42 3 63 7
25 4 48 2 63 -7 19 -10 27 -10 36 -1 7 7 25 12 40 12 32 0 118 -22 118 -30 0
-3 30 -5 68 -4 87 2 94 2 89 12 -3 4 22 7 55 7 33 -1 62 3 64 7 8 12 24 -1 24
-18 0 -8 -8 -14 -18 -14 -9 0 -22 -8 -29 -19 -7 -12 -21 -17 -37 -16 -14 2
-44 -1 -68 -7 -75 -17 -87 -18 -92 -9 -3 4 -18 6 -32 3 -19 -3 -25 -1 -20 7 9
14 1 14 -24 -1 -15 -10 -22 -9 -38 5 -10 9 -22 14 -25 10 -4 -3 -7 -1 -7 5 0
17 -36 15 -54 -3 -17 -17 -36 -20 -36 -5 0 20 -49 10 -68 -15 -20 -25 -52 -34
-52 -14 0 5 -4 7 -10 4 -5 -3 -10 -1 -10 6 0 7 -10 3 -23 -9 -26 -24 -37 -20
-37 12 0 12 -4 17 -8 11 -9 -12 -29 -11 -62 3 -20 8 -32 6 -56 -8 -46 -26 -93
-34 -119 -20 -16 9 -35 9 -68 3 -33 -8 -53 -7 -77 3 -25 11 -42 11 -78 2 -26
-6 -51 -14 -57 -18 -5 -4 -28 -6 -50 -4 -22 3 -120 6 -217 7 -98 2 -180 6
-184 10 -4 3 -22 0 -40 -8 -20 -8 -36 -10 -39 -4 -4 5 -10 7 -13 5 -14 -8
-196 33 -211 48 -8 9 -13 18 -10 20 13 13 135 18 522 21 235 1 430 5 433 8 3
3 23 -1 45 -8 21 -8 41 -10 44 -5z m1055 14 c22 -5 28 -9 18 -15 -10 -7 -10
-9 2 -10 10 0 8 -3 -5 -9 -31 -13 -45 -12 -45 5 0 9 -10 20 -22 25 -23 9 -23
9 -2 9 12 1 36 -2 54 -5z m79 -11 c8 -1 20 1 25 5 6 4 33 7 59 7 41 0 47 -3
45 -19 -3 -22 -21 -28 -93 -31 -55 -2 -75 8 -75 37 0 13 4 17 13 11 6 -4 18
-8 26 -10z m1301 7 c0 -5 -4 -10 -10 -10 -5 0 -10 5 -10 10 0 6 5 10 10 10 6
0 10 -4 10 -10z m-1105 -240 c3 -5 -3 -10 -14 -10 -12 0 -21 5 -21 10 0 6 6
10 14 10 8 0 18 -4 21 -10z m-3920 -510 c5 -21 13 -30 26 -30 10 0 19 7 19 15
0 8 5 15 10 15 6 0 10 -4 10 -10 0 -14 35 -47 58 -54 11 -4 24 -1 31 8 10 12
15 11 34 -6 13 -12 37 -22 55 -23 31 -3 75 -41 87 -76 3 -9 24 -22 47 -30 42
-14 98 -59 98 -79 0 -7 18 -11 48 -9 51 2 72 -11 173 -113 26 -27 52 -48 57
-48 5 0 31 -18 58 -40 42 -35 91 -55 159 -65 11 -1 37 -10 58 -19 21 -9 43
-13 50 -9 7 4 28 9 48 9 30 2 41 -3 58 -27 24 -32 41 -38 41 -13 0 28 22 9 37
-31 34 -92 36 -113 24 -222 -7 -59 -8 -109 -4 -112 5 -3 10 -40 12 -81 1 -41
6 -77 9 -80 4 -3 7 -48 7 -100 0 -86 2 -98 23 -120 21 -22 23 -31 17 -75 -4
-27 -9 -66 -11 -85 -3 -19 -12 -41 -21 -47 -13 -10 -16 -29 -16 -78 1 -73 5
-70 -72 -41 -16 6 -62 11 -101 11 -40 0 -70 3 -68 7 7 11 -38 38 -64 38 -12 0
-38 6 -57 14 -51 22 -134 21 -271 -2 -67 -11 -133 -17 -148 -15 -14 3 -26 1
-26 -5 0 -14 -54 -24 -146 -27 -56 -2 -89 -8 -107 -20 -36 -24 -98 -36 -114
-24 -6 6 -21 8 -32 4 -11 -3 -29 -8 -41 -10 -12 -2 -27 -8 -34 -14 -6 -5 -22
-11 -36 -13 -14 -1 -37 -18 -52 -36 -15 -18 -29 -32 -32 -30 -11 6 -35 -52
-29 -69 5 -14 1 -15 -29 -10 -28 4 -41 1 -59 -16 -13 -12 -28 -22 -34 -23 -27
-1 -82 -18 -98 -29 -16 -11 -16 -14 6 -47 25 -35 46 -134 53 -238 2 -30 7 -66
11 -80 9 -32 10 -40 12 -68 0 -13 5 -21 10 -18 5 4 11 1 13 -4 2 -6 10 -12 18
-13 8 -2 21 -6 28 -11 8 -5 18 -2 26 9 16 22 48 16 61 -13 12 -27 17 -28 33
-1 8 12 9 18 3 14 -7 -4 -11 7 -11 30 0 22 -6 38 -15 41 -23 9 -18 32 13 51
15 10 30 22 33 27 4 5 12 -1 18 -13 7 -13 21 -21 37 -21 14 0 32 -7 41 -15 14
-14 13 -18 -7 -35 -15 -13 -20 -25 -15 -40 3 -11 11 -18 16 -15 5 4 9 2 9 -4
0 -19 105 -78 149 -84 25 -3 48 -12 53 -21 5 -9 18 -16 28 -16 10 0 21 -4 24
-9 3 -5 27 -12 53 -16 27 -4 53 -10 58 -13 10 -7 20 -9 65 -16 14 -2 37 -8 52
-14 32 -13 247 -5 265 10 7 5 29 11 50 12 69 5 150 45 145 72 -4 21 30 58 84
89 23 13 45 32 48 41 4 9 9 14 12 11 14 -14 67 17 76 45 8 22 26 37 83 64 43
21 77 44 85 59 7 14 17 25 21 25 13 0 9 123 -4 132 -9 6 -8 11 4 21 10 7 24
28 32 47 20 43 45 76 53 68 3 -4 8 -25 11 -47 4 -25 11 -41 19 -41 8 0 14 -7
14 -15 0 -8 5 -15 11 -15 7 0 8 -11 4 -31 -5 -21 -3 -34 5 -39 9 -6 9 -12 0
-30 -7 -12 -8 -20 -3 -17 5 4 10 -6 10 -21 1 -35 21 -185 31 -237 5 -22 7
-103 7 -181 -2 -117 -5 -145 -20 -168 -10 -15 -19 -47 -20 -70 -1 -29 -8 -49
-24 -65 -16 -16 -21 -31 -19 -54 2 -18 7 -30 12 -29 9 4 26 -16 26 -32 0 -4
-7 -5 -15 -2 -19 7 -30 -19 -39 -89 -13 -102 -19 -129 -35 -155 -9 -15 -22
-25 -30 -22 -7 2 -17 -2 -22 -9 -6 -11 -9 -10 -14 4 -6 13 -9 14 -19 4 -12
-11 -16 -27 -17 -70 0 -13 -6 -16 -26 -11 -18 5 -24 4 -19 -5 13 -20 -3 -49
-23 -44 -13 3 -21 -2 -26 -18 -9 -29 -30 -50 -40 -41 -4 4 -5 0 -3 -8 2 -8 -3
-14 -10 -12 -8 1 -11 -2 -7 -8 4 -6 13 -9 21 -6 11 4 14 -6 14 -44 0 -28 -4
-50 -10 -50 -5 0 -10 19 -11 43 0 32 -2 37 -9 22 -8 -19 -9 -19 -9 2 -1 17 -5
20 -23 15 -12 -3 -17 -7 -10 -10 6 -2 12 -11 12 -20 0 -12 -3 -13 -8 -5 -5 8
-13 9 -22 3 -13 -8 -13 -13 2 -39 14 -26 14 -33 2 -56 -8 -15 -14 -34 -14 -42
0 -9 -7 -13 -17 -11 -10 2 -17 11 -15 19 2 9 -3 7 -16 -6 -18 -19 -27 -49 -11
-40 9 6 34 -24 25 -32 -3 -3 -6 -1 -6 5 0 7 -7 12 -15 12 -20 0 -20 -50 0 -76
8 -10 15 -25 15 -33 1 -45 51 -111 62 -82 4 13 58 22 58 10 0 -6 4 -8 9 -5 22
14 32 -96 12 -132 -7 -12 -12 -9 -25 16 -9 17 -16 36 -16 42 0 5 -9 19 -20 30
l-20 20 0 -57 c0 -32 5 -65 10 -73 8 -12 10 -11 10 6 0 12 7 25 16 28 8 3 12
2 9 -4 -8 -13 17 -38 33 -32 8 2 12 -12 12 -51 0 -60 -25 -123 -43 -110 -7 5
-24 10 -39 12 -21 2 -26 -1 -23 -12 4 -9 -1 -13 -12 -13 -10 1 -19 -3 -20 -9
-1 -5 6 -9 17 -7 15 2 17 -2 13 -19 -4 -14 -2 -20 4 -16 6 4 2 -11 -9 -32 -20
-42 -16 -91 7 -91 8 0 16 -4 19 -8 3 -5 -5 -8 -17 -8 -18 1 -23 -5 -25 -31 -2
-18 -7 -33 -12 -33 -5 0 -7 7 -4 15 4 10 0 15 -11 15 -9 0 -13 4 -10 10 3 5 0
7 -8 5 -7 -3 -19 -22 -26 -41 -12 -32 -40 -44 -33 -14 2 7 -1 25 -7 39 -26 71
-24 68 -30 36 l-7 -30 -13 23 c-12 22 -10 27 23 57 32 29 37 31 47 16 12 -18
11 -11 -14 99 -11 46 -12 69 -4 78 7 9 7 16 -2 25 -17 17 -65 -12 -69 -42 -3
-17 -6 -20 -12 -12 -6 10 -14 9 -39 -3 -17 -9 -31 -13 -31 -9 0 5 -5 0 -11
-10 -11 -19 -69 -52 -70 -40 0 5 -7 -16 -15 -45 -16 -62 -40 -94 -50 -67 -4
10 -14 15 -26 12 -10 -3 -25 1 -32 9 -15 14 -50 9 -41 -6 9 -14 -7 -71 -19
-67 -16 5 -24 48 -14 75 10 29 -7 98 -26 105 -9 4 -16 -5 -20 -25 -9 -45 -7
-70 4 -63 14 9 23 -37 12 -65 -5 -14 -7 -30 -5 -37 2 -6 -5 -14 -16 -18 -12
-3 -21 -13 -21 -21 0 -8 4 -13 8 -10 14 8 33 -67 21 -79 -10 -10 -32 16 -34
40 -2 17 -17 45 -24 45 -4 0 -12 -13 -18 -30 -11 -29 -33 -42 -33 -19 0 15
-39 49 -57 49 -8 0 -11 -5 -8 -10 4 -6 -7 -13 -24 -16 -35 -7 -42 -37 -13 -55
13 -8 17 -24 16 -76 -1 -36 -5 -68 -11 -71 -18 -13 -22 -40 -7 -46 9 -3 12
-10 9 -16 -10 -15 28 1 43 18 6 9 12 28 12 43 0 16 6 32 14 36 7 4 24 30 38
56 l24 48 13 -24 c8 -14 25 -27 40 -30 14 -2 33 -6 41 -8 9 -3 16 5 18 19 2
13 12 32 23 43 10 10 19 28 19 40 0 11 4 18 8 15 12 -7 14 -64 2 -71 -5 -3
-10 -25 -10 -47 0 -35 6 -47 36 -75 20 -18 39 -33 43 -33 10 0 4 -153 -8 -183
-15 -39 -14 -90 2 -85 6 3 13 14 15 26 3 22 50 62 71 62 7 0 11 12 9 28 -2 22
1 26 16 24 12 -2 16 1 10 9 -5 9 -1 11 13 7 27 -7 52 36 47 80 -5 46 10 40 26
-10 17 -53 14 -68 -13 -90 -16 -12 -25 -14 -34 -6 -10 8 -13 4 -13 -15 0 -41
-10 -57 -36 -57 -17 0 -24 -6 -24 -20 0 -28 -102 -132 -122 -125 -9 4 -19 2
-22 -3 -3 -6 -15 -8 -26 -5 -24 6 -27 48 -5 57 20 7 44 64 39 91 -11 46 -12
108 -4 130 12 33 -14 41 -29 9 -19 -41 -39 -30 -43 25 -2 29 -4 30 -15 15 -7
-10 -10 -28 -6 -42 4 -18 3 -23 -6 -18 -7 5 -20 1 -30 -8 -24 -22 -44 -17 -84
20 -9 9 -19 8 -39 -2 -31 -16 -78 -21 -96 -10 -7 4 -12 32 -12 72 0 36 -4 64
-10 64 -5 0 -10 -6 -10 -14 0 -7 -7 -19 -15 -26 -12 -10 -15 -7 -21 14 -3 14
-10 26 -16 26 -5 0 -6 5 -3 10 3 6 2 10 -3 10 -5 0 -13 -15 -17 -32 -8 -31 -8
-32 -12 -8 -3 14 -8 29 -13 33 -13 14 -50 -16 -50 -40 0 -23 15 -28 62 -24 23
3 32 -36 24 -94 -7 -46 10 -128 25 -119 5 3 7 23 5 44 -4 45 9 52 25 16 6 -13
22 -29 34 -34 23 -10 23 -11 7 -45 -10 -19 -20 -33 -24 -30 -5 2 -8 -1 -8 -6
0 -6 -8 -11 -17 -11 -12 0 -18 -8 -19 -25 -2 -31 -21 -55 -43 -55 -22 -1 -67
-41 -76 -67 -8 -29 -19 -29 -45 -1 -17 19 -20 19 -20 4 0 -9 -4 -14 -10 -11
-5 3 -10 1 -10 -5 0 -7 -7 -10 -15 -6 -12 4 -15 -3 -15 -29 0 -19 -5 -35 -11
-35 -5 0 -7 6 -4 13 4 6 0 5 -7 -5 -9 -10 -27 -16 -53 -15 -36 2 -41 -1 -56
-32 -19 -41 -44 -58 -53 -35 -3 8 -10 12 -16 9 -5 -3 -10 -1 -10 6 0 10 -3 10
-11 2 -8 -8 -20 -8 -35 -3 -31 12 -40 -4 -20 -34 8 -13 13 -26 10 -29 -10 -9
-34 4 -34 19 0 8 -4 14 -9 14 -21 0 -41 -13 -41 -27 0 -10 -7 -14 -20 -10 -13
3 -25 -2 -35 -16 -10 -15 -17 -17 -27 -9 -9 7 -23 6 -48 -5 -38 -18 -45 -20
-61 -22 -5 0 -7 -5 -4 -11 13 -21 -17 -9 -42 17 -16 15 -29 21 -31 15 -2 -7
-8 -12 -13 -12 -5 0 -23 -15 -39 -33 -29 -31 -30 -31 -36 -10 -7 26 -34 39
-46 21 -6 -10 -12 -8 -24 7 -12 16 -16 17 -23 6 -7 -11 -11 -10 -20 5 -9 17
-10 17 -11 2 0 -22 -9 -23 -39 -2 -12 9 -37 18 -54 19 -48 4 -49 4 -43 13 2 4
1 14 -4 22 -7 11 -11 9 -18 -11 -6 -14 -17 -31 -26 -38 -13 -11 -17 -9 -26 14
-13 34 -13 32 10 58 21 22 24 62 5 62 -5 0 -12 -11 -13 -25 -4 -29 -29 -60
-49 -60 -8 0 -11 4 -8 10 3 5 -7 12 -22 16 -15 4 -38 16 -50 26 -12 11 -27 17
-33 13 -7 -4 -15 -4 -19 1 -6 9 -59 37 -73 38 -14 2 -23 24 -27 68 -1 5 -4 7
-8 7 -22 -4 -33 3 -33 19 0 10 6 24 13 30 15 16 19 130 5 156 -10 19 -11 19
-24 1 -8 -10 -14 -33 -14 -49 0 -17 -7 -40 -15 -50 -22 -29 -38 -7 -39 54 0
33 -5 50 -13 50 -7 0 -18 9 -25 20 -15 24 -28 26 -28 5 0 -8 -4 -15 -10 -15
-5 0 -10 8 -10 18 0 10 -9 25 -19 34 -18 15 -20 15 -25 -8 -6 -23 -26 -34 -26
-14 0 6 -6 10 -14 10 -26 0 -47 29 -36 50 6 10 10 30 10 44 0 39 -26 22 -36
-25 l-9 -39 -57 42 c-52 38 -58 47 -58 79 0 35 -29 91 -30 59 0 -8 -7 -23 -15
-33 -13 -18 -16 -17 -68 17 -30 20 -59 36 -65 36 -6 0 -16 -14 -24 -30 -7 -17
-17 -30 -21 -30 -5 0 -6 4 -2 9 10 16 -17 60 -39 63 -16 2 -20 9 -18 27 1 13
-3 30 -9 37 -6 7 -8 18 -4 23 3 7 0 8 -9 5 -9 -3 -16 -1 -16 5 0 6 -7 11 -15
11 -8 0 -15 5 -15 10 0 6 5 10 10 10 6 0 10 12 10 26 0 19 4 25 15 20 8 -3 15
-1 15 4 0 6 -7 10 -15 10 -8 0 -15 5 -15 10 0 6 -11 10 -25 10 -21 0 -59 39
-38 40 4 1 -4 8 -19 16 -16 8 -28 21 -28 29 0 28 -23 66 -38 60 -11 -4 -13 5
-8 52 6 62 -9 128 -35 154 -23 23 -45 204 -27 215 4 3 8 0 8 -7 0 -8 5 -7 17
2 13 11 17 11 20 1 3 -6 8 -10 13 -7 6 4 4 28 -15 120 -2 11 -4 23 -4 28 -2
19 -19 4 -24 -23 -8 -37 -23 -39 -30 -5 -3 17 1 30 13 38 21 15 32 45 39 110
1 4 8 7 17 7 8 0 12 -5 9 -10 -12 -19 15 -80 36 -80 10 0 19 -3 19 -7 0 -5 12
-9 27 -10 15 0 29 -6 31 -12 2 -5 9 -8 17 -5 7 3 15 -2 17 -13 3 -10 8 9 13
42 5 42 4 60 -4 63 -6 2 -11 7 -11 11 0 8 3 9 58 12 20 1 37 9 43 21 5 10 17
18 25 18 9 0 12 -5 8 -11 -4 -8 1 -9 16 -4 17 6 21 4 14 -6 -6 -11 -5 -12 8
-2 12 11 21 10 47 -3 33 -17 34 -18 31 -77 -1 -21 3 -44 10 -52 6 -7 13 -26
16 -41 6 -35 13 -46 25 -39 5 4 9 -1 9 -9 0 -22 61 1 67 25 5 19 23 27 23 11
0 -5 16 -8 35 -7 30 1 36 -3 45 -29 7 -20 7 -33 0 -40 -6 -6 -6 -14 2 -23 6
-8 7 -13 2 -12 -24 4 -34 -3 -34 -26 0 -16 6 -25 15 -25 8 0 15 7 15 15 0 9
11 20 24 27 22 9 29 7 58 -17 18 -15 39 -37 47 -47 11 -16 20 -18 48 -13 28 5
41 1 67 -19 35 -26 70 -88 68 -118 0 -10 6 -18 14 -18 8 0 19 -11 25 -24 11
-24 49 -43 49 -25 0 5 11 4 25 -1 30 -11 65 12 65 43 0 10 6 17 13 15 15 -6
22 -48 8 -48 -6 0 -8 -7 -4 -16 3 -9 9 -11 12 -6 3 5 15 11 26 13 13 3 22 16
26 38 4 19 17 42 29 51 21 16 22 18 6 48 -17 32 -34 40 -52 23 -11 -12 -36 5
-52 35 -8 15 -8 26 1 44 15 29 66 49 77 30 6 -10 16 -8 44 10 30 18 45 21 81
16 24 -4 49 -14 55 -21 17 -20 36 -19 60 5 37 37 178 20 221 -26 l23 -24 21
20 c17 16 40 21 112 26 92 6 112 0 126 -38 3 -9 11 -7 28 8 36 32 62 37 108
18 72 -29 65 -97 -14 -141 -48 -26 -69 -28 -85 -8 -18 21 -23 19 -39 -16 -19
-44 -4 -55 74 -51 58 3 65 2 65 -15 1 -21 33 -63 49 -63 6 0 11 -3 11 -8 0 -4
20 -7 45 -7 25 0 45 3 45 8 0 4 13 7 28 7 16 0 38 9 50 20 12 11 27 20 34 20
7 0 19 9 26 20 7 11 19 20 27 20 21 0 65 41 65 60 0 19 22 40 60 58 14 7 36
19 50 27 14 8 37 15 51 15 15 0 32 7 39 16 27 32 45 34 83 8 26 -17 37 -32 37
-49 0 -14 5 -25 10 -25 6 0 10 -7 10 -15 0 -8 5 -15 10 -15 6 0 10 9 10 21 0
11 7 28 16 36 11 12 14 27 10 51 -5 33 -34 77 -44 68 -2 -3 -12 2 -21 11 -12
12 -13 17 -3 21 7 2 10 8 6 13 -3 5 2 9 10 9 9 0 16 -8 16 -17 0 -14 3 -13 16
5 9 13 14 37 13 57 -2 19 0 37 3 41 8 8 19 -33 15 -61 -1 -12 3 -19 11 -18 6
2 12 -2 12 -7 0 -6 6 -10 14 -10 12 0 12 6 3 29 -8 22 -7 37 7 71 14 35 15 45
4 51 -10 7 -10 9 0 9 6 0 12 5 12 11 0 6 -8 8 -19 4 -21 -6 -31 14 -38 81 -4
39 -2 42 23 47 35 6 91 -17 99 -42 3 -10 12 -22 20 -25 8 -3 15 -12 15 -21 0
-8 4 -15 9 -15 4 0 6 -12 4 -27 -3 -19 -2 -24 5 -15 12 17 56 0 90 -33 16 -17
36 -25 58 -25 26 0 35 5 46 30 8 20 18 28 28 25 10 -3 9 0 -3 9 -10 8 -27 12
-37 9 -20 -5 -54 20 -42 32 4 3 7 21 8 38 0 18 4 46 8 62 6 22 5 26 -3 15 -6
-8 -11 -10 -11 -4 0 18 -38 24 -51 8 -6 -8 -9 -27 -5 -44 8 -41 -10 -38 -24 4
-16 50 -40 55 -41 8 -1 -37 -1 -37 -14 13 -7 28 -13 45 -14 39 0 -7 -9 -11
-18 -10 -30 2 -62 38 -69 75 -9 49 -12 53 -35 40 -17 -9 -21 -7 -26 10 -3 11
-9 18 -14 15 -5 -3 -9 2 -9 11 0 22 -48 83 -71 90 -10 4 -19 12 -19 19 0 7
-33 39 -72 71 -40 32 -78 71 -85 86 -9 21 -19 29 -37 29 -14 0 -28 5 -31 11
-4 5 -12 8 -18 6 -7 -2 -25 5 -40 15 -15 11 -35 17 -44 14 -8 -4 -21 -2 -27 3
-6 5 -24 11 -38 13 -15 2 -30 7 -34 11 -17 16 -44 -43 -44 -95 0 -56 -12 -80
-36 -71 -8 3 -22 2 -31 -3 -29 -12 -76 -13 -98 -1 -41 21 -47 34 -54 104 0 6
-8 19 -17 27 -14 14 -17 14 -40 0 -13 -9 -24 -12 -24 -8 0 5 -5 1 -11 -8 -5
-10 -19 -18 -29 -18 -10 0 -32 -12 -47 -26 -33 -31 -74 -49 -134 -59 -69 -13
-83 -13 -101 -3 -10 5 -18 5 -18 0 0 -9 -63 -34 -95 -38 -26 -3 -131 34 -146
52 -6 8 -18 14 -26 14 -8 0 -30 16 -51 36 -32 31 -38 33 -48 20 -6 -9 -18 -16
-26 -16 -9 0 -27 -9 -41 -20 -30 -24 -132 -28 -161 -7 -23 17 -32 97 -18 150
11 40 13 38 -47 41 -24 1 -43 -8 -71 -31 -21 -18 -42 -33 -46 -33 -5 0 -17 -9
-29 -20 -46 -44 -65 -60 -73 -60 -15 0 -62 -25 -62 -32 0 -5 -6 -8 -14 -8 -17
0 -86 -70 -86 -87 0 -21 -42 -54 -62 -47 -10 3 -18 0 -18 -6 0 -6 -4 -9 -9 -5
-5 3 -12 1 -16 -5 -3 -5 -15 -10 -26 -10 -11 0 -22 -7 -25 -15 -4 -8 -11 -15
-17 -15 -6 0 -19 -8 -29 -17 -14 -12 -21 -14 -26 -6 -12 19 -29 1 -50 -52 -11
-28 -25 -49 -31 -48 -6 2 -27 -8 -47 -22 -40 -27 -54 -31 -54 -15 0 6 -12 10
-27 11 -25 0 -26 1 -8 9 16 7 16 9 3 9 -9 1 -25 18 -35 39 -25 46 -47 48 -51
4 -5 -49 -31 -37 -50 22 -15 46 -16 48 -26 25 -6 -13 -16 -30 -23 -37 -11 -11
-13 -8 -13 16 0 16 -9 41 -21 56 -14 18 -18 32 -13 48 14 42 12 58 -8 58 -11
0 -16 -5 -13 -10 3 -6 -2 -9 -12 -7 -31 5 -63 27 -63 43 0 8 -4 12 -10 9 -10
-6 -14 7 -11 33 1 8 -3 20 -9 27 -7 8 -9 18 -6 24 3 5 -1 12 -9 15 -13 5 -14
10 -4 27 9 18 13 19 21 8 6 -10 8 2 4 35 -3 28 -10 52 -15 55 -5 4 -11 15 -13
26 -5 19 -5 19 -14 -2 -5 -12 -13 -23 -18 -25 -12 -4 -27 39 -31 92 -13 173
-17 199 -32 193 -11 -5 -14 7 -15 63 -1 145 4 239 12 244 4 3 7 24 6 48 -1 23
1 42 5 42 3 0 9 21 12 48 14 103 21 127 43 130 19 3 21 9 21 55 -2 55 20 117
40 117 18 0 35 -37 32 -68 -3 -31 39 -112 59 -112 6 0 12 -3 12 -8 0 -4 8 -12
18 -17 39 -21 100 -71 108 -89 5 -11 20 -21 33 -23 14 -2 32 -10 41 -18 9 -8
23 -15 31 -15 8 0 27 -14 44 -31 17 -19 31 -27 33 -20 6 19 31 -21 32 -50 0
-28 17 -40 60 -45 14 -1 39 -8 55 -15 37 -16 47 -18 110 -25 95 -10 353 27
430 61 25 12 68 23 102 28 5 0 14 7 22 15 9 8 28 12 47 10 22 -3 35 1 39 10 3
7 9 10 15 7 5 -3 10 3 10 14 0 12 -4 21 -9 21 -15 0 -21 44 -8 56 16 16 103
24 116 11 5 -5 26 -11 45 -13 35 -2 71 -26 59 -38 -4 -3 1 -6 9 -6 14 0 30 40
42 100 2 8 8 28 14 43 7 16 12 33 12 39 0 13 33 72 42 76 4 2 12 21 18 43 8
27 20 43 41 55 39 20 35 46 -10 55 -18 4 -37 12 -41 19 -5 9 -13 9 -27 1 -16
-8 -24 -7 -37 8 -9 9 -16 23 -16 30 0 8 -6 11 -16 7 -11 -4 -19 3 -27 24 -6
16 -18 30 -27 30 -8 0 -22 15 -30 32 -13 25 -23 32 -53 35 -21 2 -37 -1 -37
-7 0 -5 -11 -10 -25 -10 -14 0 -25 5 -25 10 0 6 -8 10 -19 10 -10 0 -30 9 -44
20 -14 11 -35 20 -47 20 -11 0 -34 7 -49 15 -29 14 -74 27 -161 46 -25 5 -88
11 -140 14 -66 3 -112 11 -150 26 -30 12 -69 21 -87 20 -23 -1 -35 4 -43 19
-14 26 -60 26 -90 0 -26 -23 -41 -25 -57 -9 -7 7 -16 7 -29 0 -19 -9 -197 -51
-221 -51 -19 0 -27 67 -13 110 10 29 10 52 0 109 -9 55 -9 75 0 86 28 34 49
89 46 122 -2 20 2 46 9 59 17 33 7 355 -14 421 -5 18 -6 35 -2 37 4 3 8 27 9
53 5 115 20 155 85 226 34 36 81 75 105 87 23 11 48 32 54 45 7 16 20 25 33
25 13 0 28 7 35 15 7 8 20 15 30 15 10 0 23 7 30 15 7 8 18 14 24 14 12 -2 41
7 69 22 37 19 54 27 102 44 28 9 66 19 85 22 50 6 242 33 260 36 8 2 24 8 35
14 12 6 45 10 75 8 34 -2 66 2 84 11 36 17 36 17 36 0 0 -18 19 -23 86 -25 45
-1 54 2 68 24 15 23 18 24 32 10 18 -17 36 -19 50 -5 5 5 29 11 52 12 44 1 76
-18 87 -53 4 -11 12 -19 19 -19 19 0 59 47 51 59 -3 6 1 11 9 11 9 0 16 -3 16
-8 0 -4 13 -13 30 -20 26 -12 32 -11 47 3 12 13 29 16 65 13 27 -3 51 -1 54 4
9 13 24 9 24 -7 0 -8 5 -15 10 -15 6 0 10 -7 10 -15 0 -22 21 -18 27 4 3 12
11 17 19 14 8 -3 14 1 14 11 0 21 12 20 43 -5 26 -19 28 -19 62 -3 25 11 39
13 48 6 21 -18 26 -18 40 2 8 10 27 19 47 20 18 1 35 7 38 14 6 19 20 5 27
-28z m-2779 -1847 c-3 -3 4 -17 14 -31 11 -13 20 -29 20 -33 0 -15 -47 -10
-60 6 -9 10 -9 15 -1 15 6 0 11 14 11 31 0 19 4 28 11 24 6 -4 8 -9 5 -12z
m4206 -12 c-5 -3 -12 -15 -15 -26 -3 -14 -5 -10 -6 12 0 17 5 33 12 36 15 5
23 -13 9 -22z m-3882 -1 c0 -11 -4 -20 -9 -20 -7 0 -8 17 -2 38 4 10 11 -2 11
-18z m4422 -67 c15 -15 28 -37 28 -50 0 -19 -5 -23 -28 -23 -18 0 -44 -13 -69
-35 -23 -19 -44 -35 -47 -35 -14 0 -4 88 15 127 25 52 58 57 101 16z m-3332
-233 c0 -5 -5 -10 -11 -10 -5 0 -7 5 -4 10 3 6 8 10 11 10 2 0 4 -4 4 -10z
m-372 -19 c22 -19 30 -37 12 -26 -5 3 -10 -1 -10 -9 0 -9 -4 -16 -9 -16 -10 0
-41 28 -41 36 0 4 22 32 26 34 1 0 11 -8 22 -19z m3787 -58 c15 -118 -5 -316
-43 -423 -77 -218 -119 -381 -157 -610 -9 -58 -25 -124 -35 -147 -26 -60 -77
-120 -103 -122 -12 0 -38 -2 -57 -5 -20 -2 -45 3 -59 11 -23 15 -24 18 -18
102 4 47 13 118 22 156 8 39 15 84 15 101 0 35 35 130 58 157 12 13 13 20 4
29 -34 34 5 188 48 188 11 0 24 10 31 21 12 22 11 29 -16 149 -10 46 -14 90
-10 115 3 22 8 60 10 85 4 58 33 120 57 120 10 0 18 5 18 11 0 27 18 -5 23
-42 4 -29 15 -50 35 -68 25 -24 29 -33 26 -72 -4 -54 15 -179 26 -179 11 0 27
55 28 95 1 17 6 50 12 75 6 25 17 70 25 100 7 30 16 89 20 130 4 41 9 78 12
82 10 18 21 -5 28 -59z m-1711 14 c16 -12 16 -13 -3 -14 -11 -1 -25 5 -32 13
-15 19 9 20 35 1z m-2178 -31 c20 -1 42 -9 48 -17 6 -8 19 -13 29 -11 9 2 17
0 17 -5 0 -5 15 -7 34 -5 25 3 41 -2 57 -17 29 -27 96 -32 111 -8 4 6 18 1 37
-15 17 -15 36 -28 43 -31 7 -2 9 -8 5 -13 -4 -5 -12 -2 -17 5 -6 11 -14 10
-38 -8 -19 -13 -45 -21 -70 -21 -22 0 -47 -6 -54 -12 -26 -26 -327 2 -364 33
-13 10 -24 76 -16 96 5 15 78 37 98 29 7 -3 16 -1 19 5 4 5 10 7 15 4 5 -3 26
-7 46 -9z m-950 -53 c10 -32 16 -74 15 -93 -1 -20 5 -53 13 -75 l14 -40 16 37
c9 21 16 44 16 53 0 21 27 19 34 -3 3 -10 8 -90 11 -177 11 -328 32 -538 70
-703 31 -138 33 -202 6 -202 -27 0 -75 43 -95 84 -9 19 -16 60 -16 93 0 57
-21 191 -40 264 -6 20 -13 86 -15 145 -3 60 -8 120 -12 134 -3 14 -7 61 -9
104 -1 43 -8 84 -13 89 -6 6 -11 31 -11 55 0 24 -3 41 -7 39 -5 -3 -9 41 -11
96 -1 56 -5 110 -8 119 -6 20 2 38 16 38 5 0 17 -26 26 -57z m3633 -33 c10 -5
36 -11 57 -13 37 -4 39 -6 42 -41 2 -26 -1 -38 -12 -42 -9 -3 -13 -10 -10 -15
3 -5 0 -9 -5 -9 -6 0 -20 -9 -31 -20 -22 -22 -77 -31 -205 -31 -103 -1 -185
10 -210 27 -11 8 -27 14 -37 14 -10 0 -18 5 -18 10 0 6 -11 15 -25 20 -27 10
-30 17 -16 39 6 9 11 10 15 2 10 -15 26 -14 26 2 0 8 23 12 77 13 43 1 103 7
133 14 30 7 67 13 83 13 15 0 27 3 27 8 0 17 81 24 109 9z m-2066 -916 c9 -16
22 -47 28 -68 9 -33 8 -41 -5 -48 -9 -5 -16 -22 -16 -38 0 -17 -4 -30 -10 -30
-5 0 -10 9 -10 19 0 54 -46 20 -63 -46 -8 -28 -11 -67 -9 -88 3 -29 1 -36 -9
-33 -9 3 -14 21 -14 50 0 29 -6 50 -18 62 -9 10 -15 22 -12 27 4 5 3 9 -2 9
-13 0 -33 -51 -33 -85 0 -18 -8 -37 -19 -47 -17 -15 -20 -14 -43 6 -16 15 -33
21 -52 19 -21 -3 -29 1 -33 17 -3 13 -14 20 -29 20 -15 0 -24 6 -24 16 0 8 -4
13 -9 10 -5 -3 -11 0 -14 8 -4 9 8 23 29 38 18 12 34 26 34 31 0 4 7 7 15 7 8
0 15 5 15 10 0 6 6 10 13 10 7 0 18 9 25 20 7 11 18 20 24 20 7 0 22 12 33 26
14 18 32 27 53 28 21 1 34 7 38 18 17 55 86 62 117 12z m1454 -59 c60 -59 73
-77 73 -103 0 -18 5 -32 10 -32 6 0 10 5 10 12 0 7 3 8 9 3 5 -6 11 -35 13
-65 4 -52 3 -55 -20 -55 -18 0 -25 7 -29 27 -3 15 -10 25 -15 22 -5 -3 -16 2
-23 12 -12 16 -16 17 -24 5 -5 -8 -22 -14 -38 -15 -21 -1 -31 6 -40 24 -13 25
-13 25 -7 1 4 -15 2 -21 -5 -17 -6 4 -18 -2 -28 -13 -9 -11 -20 -18 -23 -16
-4 3 -21 0 -39 -5 -28 -8 -31 -6 -32 13 -1 12 -1 25 0 30 0 4 -3 7 -7 7 -13 0
-32 48 -32 81 0 20 10 40 28 59 16 16 35 42 42 59 29 72 80 62 177 -34z
m-1400 -67 c-3 -7 -5 -2 -5 12 0 14 2 19 5 13 2 -7 2 -19 0 -25z m2513 -57 c0
-44 -2 -51 -14 -42 -11 9 -15 5 -20 -20 -3 -17 -3 -36 1 -42 3 -5 1 -7 -5 -3
-5 3 -12 0 -15 -6 -4 -10 -7 -11 -18 0 -11 10 -11 12 0 12 11 0 11 3 1 15 -10
12 -7 21 15 51 21 27 30 33 36 23 5 -8 9 -9 9 -3 0 5 -6 18 -13 28 -10 14 -11
24 -3 42 15 32 26 10 26 -55z m-70 -32 c0 -5 -4 -9 -10 -9 -5 0 -10 7 -10 16
0 8 5 12 10 9 6 -3 10 -10 10 -16z m-2910 -44 c-10 -12 -10 -15 1 -15 9 0 10
-3 4 -8 -6 -4 -15 -25 -20 -46 -6 -22 -16 -41 -23 -42 -7 -1 -9 0 -4 2 5 2 6
18 4 34 -5 38 15 90 35 90 13 0 13 -3 3 -15z m513 -67 c6 -3 21 -2 34 3 12 5
33 5 46 1 25 -9 33 -9 63 1 13 5 33 1 50 -8 16 -8 35 -15 42 -15 6 0 12 -5 12
-11 0 -6 6 -9 14 -6 7 3 18 1 24 -5 6 -6 16 -2 30 12 l21 22 30 -31 c24 -24
42 -32 85 -37 53 -6 56 -6 65 20 12 30 31 34 38 7 7 -29 46 -46 72 -31 12 6
30 8 41 5 10 -3 27 -2 37 4 37 19 89 39 122 46 31 7 37 4 71 -36 34 -40 39
-42 55 -29 10 8 26 14 37 12 10 -2 18 1 18 6 0 5 15 9 32 8 24 -1 34 -7 36
-21 3 -11 9 -26 15 -33 8 -10 14 -7 26 12 16 24 17 24 29 6 7 -11 12 -29 12
-40 0 -30 17 -24 36 13 l17 32 11 -33 c16 -47 40 -58 55 -26 6 14 15 23 20 20
5 -4 12 0 15 6 3 9 8 8 16 -4 6 -10 17 -18 25 -18 7 0 15 -8 17 -17 2 -10 12
-18 23 -18 17 0 20 -7 20 -45 l0 -45 -95 2 c-52 0 -131 4 -175 7 -68 6 -165 8
-372 7 -23 0 -44 -4 -47 -9 -3 -5 -36 -7 -74 -4 -50 3 -76 0 -98 -11 -33 -17
-48 -17 -81 1 -17 9 -80 11 -103 2 -11 -4 -57 2 -87 11 -18 6 -38 7 -45 3 -6
-4 -30 -7 -52 -6 -63 3 -76 5 -76 13 0 10 -69 9 -96 -1 -14 -6 -31 -3 -49 6
-16 8 -37 12 -47 8 -26 -8 -199 -7 -232 2 -32 8 -33 28 -5 73 15 25 23 31 29
21 6 -9 11 -7 21 11 7 13 11 24 9 24 -9 0 14 49 31 66 20 20 34 26 25 10 -3
-5 1 -12 10 -15 33 -13 40 -7 38 32 -3 31 -1 34 9 21 10 -14 14 -14 25 -3 17
18 46 18 62 -1 22 -27 40 -18 41 23 1 27 3 31 6 12 3 -14 10 -28 16 -32z
m-572 -2 c12 -13 11 -29 -1 -21 -5 3 -10 -1 -10 -9 0 -9 -4 -16 -10 -16 -5 0
-10 -6 -10 -14 0 -8 -5 -18 -12 -22 -7 -5 -8 -3 -3 6 5 8 3 11 -6 8 -7 -2 -17
-18 -21 -35 -6 -24 -14 -30 -32 -30 -14 0 -27 5 -30 13 -6 15 21 74 34 74 4 0
11 11 14 24 3 13 21 33 38 45 30 19 33 19 36 3 2 -9 8 -21 13 -26z m2906 -28
c-14 -8 -31 18 -22 33 4 6 12 3 20 -8 10 -13 10 -20 2 -25z m-675 -31 c3 -15
1 -30 -4 -33 -5 -3 -7 -12 -5 -18 3 -7 1 -19 -4 -27 -7 -12 -9 -12 -9 1 0 13
-2 13 -11 0 -9 -12 -10 -12 -5 4 4 10 1 33 -5 50 -8 23 -8 39 0 60 11 28 12
28 25 10 7 -10 15 -31 18 -47z m652 -56 c19 -16 21 -57 4 -67 -6 -4 -16 0 -23
9 -9 13 -13 5 -24 -44 -8 -33 -18 -62 -22 -65 -14 -9 -21 23 -10 44 5 10 12
46 15 78 3 32 5 60 5 61 2 7 41 -5 55 -16z m-2904 -1 c0 -5 -4 -10 -10 -10 -5
0 -10 5 -10 10 0 6 5 10 10 10 6 0 10 -4 10 -10z m6020 -35 c0 -8 -9 -19 -20
-25 -15 -8 -20 -8 -20 3 0 14 19 37 32 37 4 0 8 -7 8 -15z m-3209 -38 c-10 -9
-11 -8 -5 6 3 10 9 15 12 12 3 -3 0 -11 -7 -18z m185 -13 c-3 -9 -6 -33 -6
-55 0 -21 -4 -39 -10 -39 -5 0 -10 11 -10 25 0 14 -4 25 -10 25 -5 0 -10 6
-10 14 0 8 -8 17 -17 19 -12 3 -8 5 9 6 15 0 30 6 33 11 10 16 28 11 21 -6z
m-87 -77 c8 -10 7 -14 -2 -14 -8 0 -14 6 -14 14 0 7 1 13 2 13 2 0 8 -6 14
-13z m-1247 -148 c32 -17 10 -78 -29 -79 -18 0 -35 60 -22 76 14 17 24 17 51
3z m-105 -225 c-9 -9 -27 6 -27 22 0 13 2 13 16 -1 9 -9 14 -18 11 -21z m1363
-49 c0 -7 6 -16 13 -18 6 -3 0 -6 -15 -6 -21 -1 -28 4 -28 17 0 10 3 22 6 25
10 9 24 -2 24 -18z m58 -48 c-10 -10 -20 -12 -29 -6 -10 6 -10 9 -1 9 6 0 12
10 12 22 0 21 1 21 16 6 15 -15 15 -18 2 -31z m-587 -123 c1 -33 5 -66 10 -75
9 -17 1 -59 -11 -59 -4 0 -6 15 -5 33 1 17 -2 41 -8 52 -6 11 -12 22 -13 25 0
3 -4 13 -8 23 -10 21 0 51 14 42 5 -3 10 2 10 11 0 10 2 15 5 12 3 -3 6 -32 6
-64z m112 -53 c9 -36 1 -54 -13 -31 -7 12 -11 7 -16 -17 -4 -18 -10 -33 -14
-33 -15 0 -32 69 -25 99 5 26 9 28 33 22 19 -5 28 -17 35 -40z m201 -17 c3 -8
2 -12 -4 -9 -6 3 -10 10 -10 16 0 14 7 11 14 -7z m-77 -26 c-3 -8 -6 -5 -6 6
-1 11 2 17 5 13 3 -3 4 -12 1 -19z m-97 -28 c0 -5 -4 -10 -10 -10 -5 0 -10 5
-10 10 0 6 5 10 10 10 6 0 10 -4 10 -10z m86 -25 c13 -13 13 -19 2 -42 -17
-37 -51 -45 -43 -11 4 13 8 33 10 44 2 10 4 20 4 22 2 6 14 1 27 -13z m-144
-54 c1 -35 -26 -71 -54 -71 -14 0 -18 8 -18 33 0 27 19 79 20 53 0 -5 6 -3 13
3 8 6 17 8 20 4 4 -3 7 0 7 7 0 28 11 1 12 -29z m64 -120 c-9 -10 -16 -25 -16
-33 0 -27 -28 -43 -57 -32 -33 12 -50 52 -25 61 9 3 29 17 44 31 14 13 31 21
36 18 6 -3 14 4 19 16 7 21 8 20 11 -10 2 -21 -3 -41 -12 -51z m-2826 -36 c0
-24 -1 -24 -20 -8 -20 18 -17 22 18 32 1 1 2 -10 2 -24z m2440 -111 c0 -14 -5
-24 -11 -22 -6 2 -10 7 -10 11 1 4 1 14 1 22 0 8 5 15 10 15 6 0 10 -12 10
-26z m598 -190 c2 -16 -1 -23 -8 -19 -5 3 -10 18 -10 32 0 32 13 22 18 -13z
m-50 8 c14 -10 34 -71 26 -83 -10 -16 -22 -9 -34 20 -6 17 -9 35 -5 42 4 6 1
15 -6 20 -8 5 -9 9 -4 9 6 0 16 -4 23 -8z m-23 -93 c11 -17 -1 -21 -15 -4 -8
9 -8 15 -2 15 6 0 14 -5 17 -11z m20 -79 c-1 -58 -5 -74 -23 -92 -28 -28 -36
-19 -17 19 8 17 16 49 17 72 1 22 5 41 10 41 4 0 8 7 8 15 0 8 1 15 3 15 2 0
2 -32 2 -70z m69 20 c1 -3 7 -14 13 -25 8 -15 8 -33 0 -67 -10 -41 -14 -47
-32 -42 -16 5 -18 4 -7 -7 14 -15 16 -109 2 -109 -5 0 -10 7 -10 16 0 8 -4 13
-9 10 -5 -3 -7 -14 -4 -25 2 -10 -3 -25 -12 -34 -23 -23 -30 -79 -14 -108 7
-13 12 -29 11 -36 -1 -6 2 -14 8 -18 5 -3 10 1 10 10 0 10 7 15 18 13 12 -2
18 -16 22 -48 3 -31 9 -44 19 -42 10 2 12 -4 6 -25 -8 -30 -13 -54 -20 -118
-18 -140 -29 -195 -47 -235 -44 -98 -63 -132 -80 -141 -10 -6 -15 -15 -12 -21
4 -6 3 -8 -3 -5 -5 3 -29 -12 -52 -33 -24 -22 -51 -40 -62 -40 -10 0 -19 -7
-19 -15 0 -8 -7 -15 -15 -15 -17 0 -75 -38 -87 -56 -4 -6 -21 -11 -37 -12 -17
0 -43 -7 -58 -15 -49 -26 -295 -90 -393 -102 -201 -25 -575 -34 -695 -16 -33
5 -139 19 -235 31 -96 12 -191 25 -210 30 -19 4 -57 13 -85 18 -67 14 -173 53
-217 80 -19 12 -38 22 -42 22 -31 0 -227 198 -242 243 -3 9 -9 17 -14 17 -5 0
-15 12 -23 28 -8 15 -22 41 -33 59 -16 27 -17 37 -7 62 6 16 8 32 5 36 -3 3
-7 15 -9 27 -2 12 -10 30 -19 39 -8 9 -15 35 -16 58 0 22 -4 38 -9 35 -5 -3
-9 0 -9 5 0 6 7 11 15 11 9 0 15 9 15 25 0 14 6 25 13 25 8 0 8 3 1 8 -5 4
-10 16 -11 27 0 47 -15 140 -22 150 -46 56 -76 163 -43 150 7 -3 17 -5 21 -5
5 0 16 -18 26 -40 10 -22 21 -40 25 -40 4 0 10 18 14 40 3 22 11 40 17 40 6 0
9 -9 6 -20 -3 -11 -1 -23 4 -26 5 -3 10 -15 10 -27 1 -18 2 -19 6 -4 4 16 7
15 29 -8 13 -14 24 -30 24 -35 0 -5 14 -17 30 -27 17 -9 30 -22 30 -28 0 -16
46 -76 53 -69 8 9 67 -76 67 -97 0 -19 38 -62 63 -72 9 -3 19 -22 22 -41 10
-49 36 -71 67 -55 13 6 20 8 16 4 -4 -5 -2 -15 5 -23 9 -13 9 -14 0 -8 -9 5
-11 2 -7 -8 7 -18 20 -21 29 -6 4 7 14 2 26 -12 10 -13 26 -31 35 -40 14 -14
15 -18 3 -19 -10 0 -10 -2 -1 -6 6 -2 12 -10 12 -16 1 -7 9 -22 19 -34 15 -18
26 -22 49 -17 32 7 81 -20 82 -43 0 -7 6 -13 14 -13 7 0 17 -10 21 -22 6 -20
8 -20 12 -5 5 17 19 23 25 10 2 -5 17 -16 33 -25 17 -9 30 -22 30 -29 0 -14
30 -27 67 -28 15 -1 39 -6 55 -13 15 -6 32 -10 38 -9 31 8 115 5 118 -4 3 -7
14 -6 35 1 27 10 35 9 63 -12 34 -25 59 -31 59 -14 0 14 63 39 75 30 18 -12
53 -9 66 6 6 8 27 14 45 14 19 0 34 4 34 8 0 16 52 34 60 22 11 -17 60 0 70
24 13 34 44 54 75 48 17 -3 30 0 36 9 4 8 15 14 23 14 17 0 56 43 56 62 0 7 5
13 10 13 6 0 10 6 10 13 0 20 38 39 58 28 29 -15 47 4 48 50 0 29 6 46 20 56
10 7 18 17 17 21 -2 4 3 7 10 7 6 0 11 -7 9 -15 -8 -36 16 9 28 53 8 29 18 47
28 47 11 0 12 -3 3 -14 -10 -12 -7 -14 18 -10 18 3 31 1 31 -5 0 -6 -8 -12
-17 -12 -16 -1 -16 -2 0 -6 24 -6 57 24 57 52 0 13 6 28 14 35 8 6 16 26 18
43 4 40 20 38 32 -4 l10 -32 12 39 c12 38 12 38 13 9 1 -22 4 -26 10 -16 5 8
7 20 4 27 -2 7 2 28 10 46 8 18 18 46 21 61 4 15 10 25 15 23 5 -3 11 8 15 25
10 49 41 81 84 82 8 0 12 17 12 49 0 41 3 50 23 57 12 5 25 7 30 4 4 -2 7 4 7
13 0 30 23 84 36 84 17 0 24 -24 17 -65 -5 -29 -1 -39 17 -55 21 -18 22 -20 4
-21 -16 -1 -16 -2 -2 -6 11 -3 15 -10 11 -20 -4 -11 -2 -14 5 -9 8 5 12 -4 12
-28 0 -38 14 -55 24 -29 4 9 1 20 -5 24 -8 4 -4 9 10 14 21 6 21 7 25 107 1
20 4 24 14 16 17 -15 19 -9 14 40 -5 50 -19 55 -25 10 -3 -26 -4 -23 -5 14 -2
32 3 52 15 63 16 16 17 16 26 -6 6 -13 11 -26 11 -29z m-1324 -90 c0 -5 -2
-10 -4 -10 -3 0 -8 5 -11 10 -3 6 -1 10 4 10 6 0 11 -4 11 -10z m64 -106 c3
-8 2 -12 -4 -9 -6 3 -10 10 -10 16 0 14 7 11 14 -7z m1223 -201 c-4 -17 -4
-17 -12 0 -4 9 -4 25 0 35 8 16 8 16 12 0 3 -10 3 -26 0 -35z m60 -65 c-3 -7
-5 -2 -5 12 0 14 2 19 5 13 2 -7 2 -19 0 -25z m-2340 -1591 c15 -29 20 -97 9
-116 -5 -8 -57 14 -86 36 -2 3 -8 32 -12 66 -4 34 -10 79 -14 100 l-6 37 47
-47 c26 -27 54 -61 62 -76z m2207 63 c3 -16 9 -43 12 -60 3 -16 10 -30 15 -30
13 0 11 -44 -3 -59 -8 -9 -8 -11 -2 -8 17 10 24 -16 10 -34 -14 -20 -42 -30
-60 -23 -26 10 -51 76 -51 136 0 46 5 61 24 82 32 34 48 33 55 -4z m1908 -227
c34 -43 75 -91 90 -107 15 -17 35 -48 45 -70 9 -23 20 -43 23 -46 3 -3 10 -16
16 -30 36 -81 44 -103 44 -120 0 -10 4 -21 9 -24 8 -5 35 -105 45 -166 5 -35
-17 -63 -49 -61 -14 1 -31 2 -37 2 -7 1 -41 -1 -74 -4 -80 -7 -74 -13 -178
175 -23 42 -56 50 -88 21 -17 -15 -18 -15 -18 2 0 25 75 97 97 93 10 -2 47
-46 81 -98 l64 -95 64 -5 c58 -5 64 -3 64 14 0 51 -86 231 -174 365 -35 53
-73 115 -85 138 -22 44 -28 93 -12 93 6 0 38 -35 73 -77z m-381 -156 c32 -23
80 -58 107 -77 60 -43 83 -82 86 -148 l2 -50 -60 -11 c-34 -6 -87 -16 -119
-23 -57 -11 -58 -11 -90 19 -52 50 -63 52 -155 34 -92 -18 -112 -33 -112 -86
0 -24 8 -37 32 -55 38 -28 72 -28 275 -4 47 5 57 3 107 -27 42 -25 56 -39 56
-56 0 -30 -9 -29 -81 7 -33 17 -64 28 -69 25 -6 -4 -67 -15 -136 -26 l-127
-19 -44 22 c-57 29 -62 35 -75 106 -13 69 -3 104 40 145 22 21 46 28 131 41
114 17 126 14 189 -39 29 -25 34 -26 103 -18 130 14 121 57 -36 165 -93 64
-103 68 -140 62 -22 -3 -69 -10 -105 -14 -63 -9 -164 -25 -206 -35 -25 -6
-164 -185 -164 -211 0 -11 9 -68 21 -129 14 -77 27 -117 42 -132 11 -13 24
-23 29 -23 4 0 43 -25 85 -55 45 -31 89 -55 103 -55 14 0 81 9 150 21 l125 20
43 -23 c40 -22 42 -24 42 -71 0 -33 -9 -66 -30 -107 -17 -33 -31 -60 -33 -60
-1 0 -27 -9 -57 -20 -30 -11 -76 -23 -102 -26 -42 -6 -53 -3 -97 25 l-50 32
-73 -18 c-66 -17 -73 -21 -76 -45 -4 -35 14 -52 123 -118 l88 -53 60 12 c32 7
84 23 115 37 31 13 59 23 63 22 17 -6 -18 -53 -51 -69 -57 -28 -169 -69 -188
-69 -9 0 -46 18 -82 40 -36 21 -81 48 -100 59 -19 10 -43 28 -53 39 -24 26
-44 146 -29 165 14 16 76 36 133 43 22 3 51 9 64 14 31 12 49 5 87 -32 34 -33
68 -36 149 -12 67 20 82 33 99 85 13 39 13 42 -9 60 -29 24 -69 24 -162 0 -41
-10 -90 -21 -110 -24 -20 -2 -41 -7 -46 -10 -11 -7 -48 15 -177 102 l-94 65
-25 110 c-38 172 -44 213 -34 233 12 23 85 120 115 153 12 14 22 28 22 32 0
14 76 52 119 59 26 4 66 12 91 18 25 5 74 12 110 16 36 4 67 9 70 12 12 12 68
-11 121 -50z m-733 1 c24 -27 42 -70 41 -101 -1 -19 -3 -17 -14 9 -16 36 -43
51 -51 29 -9 -22 4 -512 15 -585 15 -100 25 -245 18 -271 -4 -13 -18 -37 -33
-52 -25 -27 -29 -28 -88 -22 -55 6 -64 11 -98 48 -21 23 -38 51 -39 62 0 11
-2 29 -4 40 -1 11 -5 54 -9 95 -3 41 -12 154 -20 250 -9 96 -17 231 -20 300
-3 69 -5 129 -5 134 -1 4 -10 6 -21 3 -30 -8 -24 6 11 27 20 12 34 15 41 8 5
-5 16 -71 23 -146 8 -74 16 -139 18 -143 3 -5 8 -40 11 -78 3 -39 10 -104 16
-145 5 -41 12 -124 15 -185 7 -123 20 -185 38 -186 17 -1 50 -6 62 -9 58 -15
70 31 49 185 -19 135 -29 694 -14 733 5 12 15 22 23 22 7 0 23 -10 35 -22z
m-1843 -1063 c0 -5 -10 -11 -22 -13 -16 -2 -23 2 -23 13 0 11 7 15 23 13 12
-2 22 -7 22 -13z"/>
<path d="M6020 6895 c1 -11 35 -55 44 -55 14 0 4 31 -11 37 -10 4 -21 11 -25
17 -5 7 -8 7 -8 1z"/>
<path d="M6160 6443 c0 -13 5 -23 10 -23 13 0 13 11 0 30 -8 12 -10 11 -10 -7z"/>
<path d="M6085 6290 c-4 -6 -3 -34 1 -63 5 -29 7 -60 6 -70 -1 -10 3 -15 8
-12 6 3 10 -1 10 -11 0 -13 -3 -14 -14 -5 -23 19 -48 2 -41 -28 4 -14 8 -27 9
-29 7 -6 62 20 74 35 9 14 12 14 12 2 1 -26 9 -113 14 -144 3 -16 10 -31 15
-33 6 -2 11 -10 11 -18 0 -8 5 -14 10 -14 6 0 10 -9 10 -21 0 -11 5 -17 10
-14 6 4 8 11 4 16 -6 11 23 49 37 49 5 0 6 -8 3 -17 -5 -16 -4 -15 6 1 9 13 9
24 1 43 -6 13 -11 35 -11 48 0 14 -4 25 -10 25 -5 0 -10 8 -10 17 0 13 -3 14
-12 5 -13 -13 -29 -16 -27 -4 3 14 -23 72 -32 72 -5 0 -9 10 -10 23 0 21 -1
21 -9 2 -11 -25 -13 -14 -10 50 1 32 7 54 18 62 16 12 16 14 -2 28 -23 17 -62
20 -71 5z m75 -20 c0 -5 -5 -10 -11 -10 -5 0 -7 5 -4 10 3 6 8 10 11 10 2 0 4
-4 4 -10z m54 -265 c-4 -8 -13 -15 -20 -15 -12 0 -12 3 -2 15 17 19 29 19 22
0z"/>
<path d="M6212 6141 c1 -28 4 -36 12 -29 15 14 14 68 -1 68 -8 0 -12 -14 -11
-39z"/>
<path d="M4003 5670 c4 -14 7 -30 7 -35 0 -6 9 -11 20 -12 27 -2 25 11 -7 44
l-26 28 6 -25z"/>
<path d="M7805 5580 c3 -5 8 -10 11 -10 2 0 4 5 4 10 0 6 -5 10 -11 10 -5 0
-7 -4 -4 -10z"/>
<path d="M4140 5470 c0 -5 5 -10 10 -10 6 0 10 5 10 10 0 6 -4 10 -10 10 -5 0
-10 -4 -10 -10z"/>
<path d="M7432 5208 c-14 -14 -16 -98 -2 -98 10 0 14 21 10 49 -1 8 4 17 10
21 8 5 9 13 3 24 -7 13 -12 13 -21 4z"/>
<path d="M7531 4774 c0 -11 3 -14 6 -6 3 7 2 16 -1 19 -3 4 -6 -2 -5 -13z"/>
<path d="M5545 4700 c-4 -12 -18 -23 -33 -26 -33 -7 -68 -31 -58 -41 4 -4 11
-1 16 7 6 8 10 11 10 7 0 -4 9 -3 19 2 14 8 20 7 25 -5 4 -10 2 -13 -6 -8 -7
4 -8 3 -4 -4 9 -16 38 -15 59 1 14 10 15 17 5 50 -13 41 -23 47 -33 17z"/>
<path d="M5803 4634 c-2 -7 0 -21 6 -31 6 -10 11 -13 11 -7 0 7 9 14 20 17 28
7 25 24 -6 30 -16 3 -28 0 -31 -9z"/>
<path d="M4410 4590 c-11 -11 -20 -26 -20 -34 0 -8 -7 -16 -15 -20 -8 -3 -15
-15 -15 -26 0 -11 -7 -20 -15 -20 -14 0 -14 -4 -2 -27 25 -52 40 -111 32 -130
-14 -32 -14 -43 1 -43 8 0 14 9 14 19 0 11 5 23 12 27 6 4 8 3 5 -3 -4 -6 0
-16 8 -23 8 -7 15 -20 15 -29 1 -36 34 47 37 94 4 73 7 82 31 108 12 13 22 26
22 29 0 4 -13 22 -50 65 -5 7 -10 17 -10 23 0 17 -29 11 -50 -10z m29 -52 c1
19 21 14 21 -6 0 -10 5 -23 12 -30 6 -6 8 -15 4 -19 -10 -10 -42 12 -38 27 1
6 -2 9 -7 6 -14 -9 -24 12 -16 32 6 15 8 15 15 -3 5 -11 9 -14 9 -7z"/>
<path d="M6901 4414 c0 -11 3 -14 6 -6 3 7 2 16 -1 19 -3 4 -6 -2 -5 -13z"/>
<path d="M7551 4414 c0 -11 3 -14 6 -6 3 7 2 16 -1 19 -3 4 -6 -2 -5 -13z"/>
<path d="M4266 4395 c4 -8 8 -15 10 -15 2 0 4 7 4 15 0 8 -4 15 -10 15 -5 0
-7 -7 -4 -15z"/>
<path d="M4742 4375 c1 -16 9 -30 16 -33 18 -6 15 33 -4 49 -14 11 -15 9 -12
-16z"/>
<path d="M5690 4372 c-8 -3 -27 -16 -42 -29 -14 -14 -31 -22 -36 -19 -6 3 -19
-5 -30 -19 -11 -14 -28 -25 -39 -25 -31 0 -43 -19 -31 -46 6 -13 15 -24 19
-24 4 0 20 -11 35 -25 15 -14 31 -25 36 -25 5 0 8 -10 7 -22 -1 -13 1 -35 5
-49 7 -24 12 -26 64 -26 37 -1 63 5 75 15 9 8 17 11 17 6 0 -6 38 -9 88 -8
113 3 121 4 127 15 8 12 45 12 45 -1 0 -14 28 -12 33 3 3 9 7 9 20 -2 14 -11
18 -11 23 3 3 9 14 16 23 16 14 0 14 2 1 10 -11 7 -11 10 -2 10 7 0 25 11 39
24 20 18 34 23 62 20 32 -3 40 1 71 38 22 27 30 43 22 46 -9 3 -10 7 -2 17 11
14 4 61 -11 71 -5 3 -20 -7 -33 -21 -25 -27 -26 -27 -58 -10 -31 16 -98 27
-162 25 -15 0 -34 4 -41 10 -9 8 -15 8 -20 0 -4 -7 -11 -5 -21 4 -10 11 -36
14 -105 11 -50 -2 -94 -6 -97 -9 -3 -3 -12 -1 -19 6 -16 13 -41 17 -63 10z"/>
<path d="M4793 4349 c-7 -9 -9 -20 -3 -29 12 -19 22 -7 18 21 -2 19 -5 20 -15
8z"/>
<path d="M6352 4288 c-6 -24 -4 -37 7 -51 15 -17 16 -17 19 10 2 15 9 34 15
41 8 10 7 16 -4 23 -23 14 -28 11 -37 -23z"/>
<path d="M4521 4293 c-1 -12 4 -25 9 -28 12 -7 12 2 0 30 -8 19 -9 19 -9 -2z"/>
<path d="M5390 4250 c0 -6 4 -18 9 -28 5 -9 12 -25 15 -35 6 -19 27 -19 33 -1
2 6 -10 25 -27 42 -16 18 -30 27 -30 22z"/>
<path d="M4740 4208 c0 -18 11 -45 26 -65 26 -34 27 -34 44 -15 20 21 17 72
-4 72 -7 0 -22 9 -34 20 -28 27 -32 25 -32 -12z"/>
<path d="M4890 4140 c0 -19 3 -21 12 -12 9 9 9 15 0 24 -9 9 -12 7 -12 -12z"/>
<path d="M4946 4082 c-2 -4 2 -15 9 -25 15 -20 31 -6 21 18 -6 16 -22 20 -30
7z"/>
<path d="M4670 4060 c0 -11 4 -18 10 -15 5 3 15 -5 22 -19 14 -33 26 -33 34 0
4 16 12 23 20 20 8 -3 14 1 14 9 0 11 -10 14 -32 13 -18 -1 -41 2 -50 6 -14 6
-18 3 -18 -14z"/>
<path d="M4902 4020 c0 -14 2 -19 5 -12 2 6 2 18 0 25 -3 6 -5 1 -5 -13z"/>
<path d="M4984 3989 c-3 -6 -1 -16 5 -22 6 -6 11 -8 11 -4 0 4 9 3 21 -3 18
-10 20 -9 17 6 -4 20 -45 38 -54 23z"/>
<path d="M4910 3951 c0 -22 4 -31 13 -28 13 4 11 36 -4 52 -5 5 -9 -4 -9 -24z"/>
<path d="M6577 3900 c-20 -47 -20 -50 -6 -50 7 0 18 -8 25 -17 12 -17 13 -17
19 0 8 20 -3 107 -13 107 -4 0 -15 -18 -25 -40z"/>
<path d="M6582 3768 c-14 -14 -16 -44 -3 -52 5 -3 11 9 14 27 6 38 4 40 -11
25z"/>
<path d="M5190 3680 c0 -5 5 -10 11 -10 5 0 7 5 4 10 -3 6 -8 10 -11 10 -2 0
-4 -4 -4 -10z"/>
<path d="M5310 3640 c0 -5 -7 -10 -15 -10 -19 0 -19 -5 2 -36 l16 -26 12 29
c12 29 10 53 -6 53 -5 0 -9 -4 -9 -10z"/>
<path d="M5140 3620 c0 -15 5 -20 18 -18 9 2 17 10 17 18 0 8 -8 16 -17 18
-13 2 -18 -3 -18 -18z"/>
<path d="M5217 3563 c-15 -15 -7 -43 13 -43 21 0 24 8 14 34 -7 17 -16 20 -27
9z"/>
<path d="M4791 5244 c0 -11 3 -14 6 -6 3 7 2 16 -1 19 -3 4 -6 -2 -5 -13z"/>
<path d="M7214 3155 c-4 -8 -4 -31 -2 -50 2 -19 0 -36 -5 -38 -5 -1 -2 -9 7
-16 13 -11 17 -9 26 14 7 17 7 39 1 60 -5 19 -6 36 -3 39 3 3 0 6 -7 6 -6 0
-14 -7 -17 -15z"/>
<path d="M4840 3104 c0 -8 5 -12 10 -9 6 3 10 10 10 16 0 5 -4 9 -10 9 -5 0
-10 -7 -10 -16z"/>
<path d="M7005 2951 c-6 -20 3 -51 15 -51 10 0 20 26 20 51 0 24 -27 25 -35 0z"/>
<path d="M6397 11993 c-13 -13 -7 -21 13 -16 16 4 20 0 20 -20 0 -14 5 -27 11
-29 8 -3 8 -10 -2 -26 -15 -24 -39 -30 -40 -9 0 6 -4 1 -10 -11 -9 -25 -4 -46
11 -37 4 3 6 -4 3 -15 -3 -12 1 -28 9 -38 9 -9 15 -33 15 -52 0 -19 3 -46 6
-60 10 -41 19 -180 18 -267 -1 -44 5 -109 13 -142 8 -36 10 -61 5 -61 -6 0 -8
-4 -5 -9 3 -4 1 -36 -5 -71 -7 -44 -7 -66 1 -74 5 -5 10 -19 10 -31 0 -14 3
-16 9 -7 4 7 13 12 20 10 22 -5 26 132 19 542 -5 224 -12 348 -24 408 -4 19
-11 22 -48 22 -23 0 -46 -3 -49 -7z m90 -185 c-3 -8 -6 -5 -6 6 -1 11 2 17 5
13 3 -3 4 -12 1 -19z"/>
<path d="M7440 11991 c0 -5 5 -22 10 -36 8 -21 7 -30 -6 -42 -13 -13 -15 -37
-14 -122 4 -162 2 -181 -15 -181 -24 0 -17 -23 15 -52 16 -14 28 -27 26 -29
-2 -2 -9 -51 -15 -109 -9 -88 -8 -113 4 -155 9 -30 16 -94 17 -162 1 -114 5
-132 15 -71 3 18 9 40 14 50 5 9 5 36 0 61 -4 24 -6 59 -4 78 3 19 6 86 7 149
1 63 6 127 10 143 5 17 4 39 -4 58 -11 25 -11 32 -1 39 10 5 7 18 -13 49 -20
32 -23 41 -11 41 8 0 15 -7 15 -15 0 -8 7 -15 16 -15 9 0 12 5 8 12 -4 6 -6
40 -5 76 2 54 0 64 -12 59 -12 -5 -16 6 -19 52 -2 44 0 57 10 54 13 -5 17 33
6 61 -6 17 -54 23 -54 7z"/>
<path d="M7574 11963 c0 -21 -1 -87 -2 -148 -1 -60 -2 -137 -1 -170 0 -33 -2
-172 -6 -310 -4 -171 -3 -247 4 -240 5 6 13 39 16 74 3 35 10 72 16 82 16 31
42 257 44 384 1 66 -1 175 -3 243 l-5 122 -31 0 c-30 0 -32 -2 -32 -37z"/>
<path d="M6360 11761 c0 -11 5 -23 10 -26 6 -3 10 3 10 14 0 11 -4 23 -10 26
-5 3 -10 -3 -10 -14z"/>
<path d="M6366 11548 c-8 -33 -8 -103 2 -94 4 4 7 11 8 14 0 4 4 24 9 45 8 43
-8 75 -19 35z"/>
<path d="M7296 11561 c-4 -5 -2 -12 3 -15 5 -4 12 -2 15 3 4 5 2 12 -3 15 -5
4 -12 2 -15 -3z"/>
<path d="M7300 11479 c0 -16 4 -28 9 -25 8 5 3 56 -5 56 -2 0 -4 -14 -4 -31z"/>
<path d="M7340 11450 c0 -5 5 -10 11 -10 5 0 7 5 4 10 -3 6 -8 10 -11 10 -2 0
-4 -4 -4 -10z"/>
<path d="M7340 11406 c0 -9 5 -16 10 -16 6 0 10 4 10 9 0 6 -4 13 -10 16 -5 3
-10 -1 -10 -9z"/>
<path d="M6380 11161 c0 -25 6 -27 13 -6 4 8 2 17 -3 20 -6 4 -10 -3 -10 -14z"/>
<path d="M7596 11045 c4 -8 8 -15 10 -15 2 0 4 7 4 15 0 8 -4 15 -10 15 -5 0
-7 -7 -4 -15z"/>
<path d="M6456 10991 c-4 -7 -5 -15 -2 -18 9 -9 19 4 14 18 -4 11 -6 11 -12 0z"/>
<path d="M7465 10970 c-3 -5 -1 -10 4 -10 6 0 11 5 11 10 0 6 -2 10 -4 10 -3
0 -8 -4 -11 -10z"/>
<path d="M7465 10889 c-4 -6 -5 -12 -2 -15 2 -3 7 2 10 11 7 17 1 20 -8 4z"/>
<path d="M7302 10620 c0 -14 2 -19 5 -12 2 6 2 18 0 25 -3 6 -5 1 -5 -13z"/>
<path d="M7612 10365 c0 -16 2 -22 5 -12 2 9 2 23 0 30 -3 6 -5 -1 -5 -18z"/>
<path d="M7761 10234 c0 -11 3 -14 6 -6 3 7 2 16 -1 19 -3 4 -6 -2 -5 -13z"/>
</g>
</svg>
